<?xml version="1.0" encoding="UTF-8"?>
<svg xmlns="http://www.w3.org/2000/svg" xmlns:xlink="http://www.w3.org/1999/xlink" viewBox="0 0 630 630">
  <defs>
    <style>
      .cls-1 {
        stroke: #0e1819;
      }

      .cls-1, .cls-2, .cls-3, .cls-4 {
        fill: none;
        stroke-miterlimit: 10;
      }

      .cls-2 {
        stroke: #ba4d9d;
      }

      .cls-3 {
        stroke: #e92260;
      }

      .cls-5 {
        fill: #ebc01f;
      }

      .cls-4 {
        stroke: #7c50a0;
      }

      .cls-6 {
        letter-spacing: 0em;
      }

      .cls-7 {
        letter-spacing: 0em;
      }

      .cls-8 {
        fill: #ecc020;
      }

      .cls-9 {
        fill: #231f20;
        font-family: MyriadPro-Regular, 'Myriad Pro';
        font-size: 12px;
      }

      .cls-10 {
        fill: #e5bc21;
      }
    </style>
  </defs>
  <g id="Layer_1" data-name="Layer 1">
    <image width="630" height="630" xlink:href="39.jpg"/>
  </g>
  <g id="Layer_2" data-name="Layer 2">
    <path class="cls-10" d="M298.15,69.04l5.04,5.56,5.7,5.7,2.8,5.06c.37.37.83,3.61,6.24,7.31s7.59,5.11,7.59,5.11l6.78,5.7c.13.58,3.95,5.24,4.95,6.45.16.19.23.42.27.67.32,2.13,3.21,3.9,3.21,3.9,0,0,3.45-.02,3.15-1.36s-3.46-7.7-3.46-7.7c0,0-3.41-6.26-8.37-9.3s-11.96-8.3-11.96-8.3c0,0-1.87-2.65-7.43-10.35-5.33-5.07-6.55-5.94-7.69-6.76-1.87-1.34-7.33-7.04-7.33-7.04,0,0-3.11.15-1.56,2.3s2.07,3.04,2.07,3.04Z"/>
    <path class="cls-10" d="M346.76,110.52l.7,1.07,6.96.37-8.15-10.44c-1.31-1.59-1.33-5.63-11.04-11.41s-9.56-7.78-9.56-7.78l-7.04-9.26s-3.63-4.22-8.44-5.85-5.48-4.74-5.48-4.74c0,0-5.26-2.59-2.59,1.22s7.11,5.89,7.11,5.89c0,0,5.78,4.74,9.11,9.85l3.33,5.11,6.22,4.89s6.22,4.19,11.27,9.48c3.95,4.14,6.55,9.38,7.59,11.59Z"/>
    <path class="cls-1" d="M304.34,128.19s-1.56,1.44-.22,1.83,2.11.06,1.94-.92-.5-1.19-1.72-.92Z"/>
    <path class="cls-1" d="M326.78,133.31s-.06,1.39.92,1.47,1.83-.17,1.97-.94,0-1.92,0-1.92c0,0-2.08-1.36-2.89,1.39Z"/>
    <path class="cls-10" d="M315,66.5s-3.06-4.56,2.05-1.67,12.25,9.11,12.68,11.11c1.47,1.81,6.95,6.26,8.13,6.78s9.7,7.04,10.37,8.52,5.8,9.19,6.19,9.41,9.89,9.95,9.89,9.95c0,0-3.51,1.54-5.36,1.56s-7.46-8.47-7.46-8.47l-5.2-8.37c-.07-.11-.38-.7-.39-.83-.05-.5-.63-2.16-9.29-7.39l-9.8-7.63c-.19-.15-.33-.34-.44-.55-.25-.49-1.07-1.74-3.78-4.68-3.94-4.28-7.58-7.73-7.58-7.73Z"/>
    <path class="cls-8" d="M281.57,563.07s-4.22-7,1.78-5.11,8.34-.48,8.34-.48c.78-1.33,6.01-2.28,7.12-1.83s4.54-.31,4.93-2.08c.41-1.88.52-7.12-1.48-8.45s-1.85-2.52-5.85-2.74l-4-.22s-2.5-4.19-7.94-4.58-7.11,2.99-7.11,2.99c0,0-2.5,4.84,1.33,8.56s6.94,3.68,6.94,3.68c0,0,2.57.6,3.39-1.84s-.04-4.63-.04-4.63c0,0-.27-2.67-3.44-2.45s-3.89,0-4.33,2.17,1.67,2,1.67,2c0,0,.06-3.11,2.17-2.78s3.89,1.28,2.72,3.39-3.56,2.56-3.56,2.56c0,0-6.72-1.91-5.74-6.65s3.43-4.96,3.43-4.96c0,0,6.42-1.94,9.42,4.06,2.49,1.14,2.8,1.13,4.21,1.02s4.89,1.28,4.89,1.28c0,0,4.09,4.72,1.28,8.28-4.07.48-5.67-.33-5.67-.33-.07-.81-2.11-.06-2.11-.06,0,0-2.34,3.7-6.04,3.7s-8.12-1.27-10.6-5.15c-2.22-3.48-2.07-4-2.07-4,0,0-2.52-7.09,1.63-11.14s6.37-3.97,6.37-3.97c0,0,7.93-1.11,11.04,4.67,3.93.59,4.89.67,4.89.67,0,0,6.3.52,7.48,9.04,1.19,8.52-3.48,12.15-3.48,12.15-1.26.15-6.15,1.53-6.15,1.53,0,0-3.85,2.47-5.03,4.17s-9.81.48-10.35-2.43Z"/>
    <path class="cls-8" d="M267.57,548.36s2.7-2.41,5.22-1.22,2.49,3.64,1.23,4.68-4.89.81-4.89.81c-.22-.3-2.53-2.28-1.56-4.27Z"/>
    <path class="cls-8" d="M265.87,547.81s-1.04,6.15,2.15,6.15c2.37.96,4.89,0,4.89,0,0,0,2.89-.67,3.78,1.85,0,0,1.45.22,1.54,2,.06,1.24-.51,2.08-1.02,2.44-.26.18-.43.46-.4.78.04.48-.2,1.09-1.61,1.09-2.33,0-4.1-.97-4.1-.97,0,0-1.7-.56-2.7.44s-3.51,1.53-4.51.89-1.16-2.11-1.16-3.44-3.44-4.44-4.33-4.78-.2-6.31-.2-6.31c0,0,1.42-4.39,3.97-4.39s4.34-.97,4.34-.97c0,0,2.59-2.18,2.89-2.78.32-.64,4.24-.11,4.24-.11,0,0,.7,3.44-1.02,4.5s-6.75,3.6-6.75,3.6Z"/>
    <path class="cls-8" d="M272.44,533.04s-4.15-.15-7.26,3.7c-1.04,0-7.56.15-9.78,5.48s-4.37,7.24-1.2,12.13l3.17,4.89s1.45,1.67,1.29,2.94-.56,5.39,2,5.72,6.17-.11,6.5-.94,2.5-.84,3.36-.83c1.33.01,7.71.94,9.19.33,1.59-.64.28-3.56.28-3.94s-2.88,1.69-8.06.25c-2.7-1.17-4.32.84-4.32.84,0,0-6.17,3.04-5.58-3.04-.07-1.22-1.4-3.62-2.66-3.99s-4.08-2.64-3.34-4.86c.07-2.59-.1-5.48,1.91-6.81,0,0,0-1.95,2.73-3.06s4.83-.7,4.83-.7c0,0,2.35-.52,2.58-1.63s4.18-3.37,5.73-2.78,2.35-1.52,2.35-1.52c0,0,.5-2.64-3.72-2.17Z"/>
    <path class="cls-8" d="M237.48,552.26c.18,0,.63-.08.78-.18,1.33-.83,8.23-4.83,10.39-4.6,2.29.24,2.36.46,2.35.49,0,0-.01.23-.01.24,0,.09.31,5.9,1.62,6.93s4.14,5.63,4.14,5.63c0,0,.15,3.56-2.81,2.67s-5.48-3.41-5.48-3.41l-6.2.18c-.2,0-.39-.06-.55-.19l-3.88-3.2c-.06-.05-.98-.6-1.06-.61l-7.35-2.11-4.74-3.6-4.02-1.17-3.8-2.31-1.65-2.09,6.68.14s4.76-1.47,5.04-2.8c1-1.39,5.36-1.39,5.36-1.39,0,0,5.09,3.39,3.14,5.61-2.39.72-3.24-.12-3.57-.95s-2.8-2.13-3.54.42c-.56,1.91-1.08,3.78.15,4.53s3.46,3.1,5.09,2.51c1.33-.48,3.17-.72,3.92-.75Z"/>
    <path class="cls-8" d="M240.17,546.98s2.96-3.58,5.48-3.88l2.52-.3s2.81-.44,3.7,0,2.81,2.96,0,2.96-8.15,1.04-8.74,2.07-4.3,3.16-2.96-.86Z"/>
    <path class="cls-8" d="M201.13,541.14s5.22,6.31,6.56,5.84,4,.02,4,.02c0,0-.11,2.06.89,1.73s2.78,2.41,2.78,2.41c0,0,1.11,2.7,3.11,2.59s4.85.33,4.85.33l1.74,2.89s2.96,1.63,4.3,1.48,5.04,0,5.04,0l3.56,3.77s4.89,2.29,7.33,1.36,4.22,2.55,4.22,2.55c0,0,2.95,1.17,4.83.75,1-.22,3.17-.75,3.17-.75,0,0,2.67-1.55,0-1.84s-5.56,0-5.56,0l-1.85-1.52s-.52-1.04-3.48-1.04-4.96-.33-4.96-.33c0,0-3.52-2-4.65-3.33s-2.02-2.35-4.35-2.35-7.22-2.54-7.22-2.54c0,0-1.44-1.22-3-1.56s-6.26-4.07-6.26-4.07l-1.89-.65s-.96-2.38-2.52-2.38-3.56-1.9-3.56-1.9h7.41l2.37,1.38s4.59.59,5.19.15,5.63-5.26,8.3-4.63l2.67.63s2.48,2.22,2.87,3.85.68,5.06-1.09,5.35l-1.78.28-2.52-2.64s-4.15-1.8-1.7,1.46,5.56,2.7,5.56,2.7c0,0,4.98-1.11,4.42-5.17s-2.64-7.61-6.05-7.91-4.3-1.78-8.3,0-3.37,1.44-8.28,1.44-13.2.63-13.2.63c0,0-4.07-.67-2.93,1Z"/>
    <path class="cls-8" d="M329.37,536.22l1.78,4.92s-4.89,9.3-2.89,12.41,6.07,6.07,8.74,5.33c3.11-.15,7.11-2.22,7.26-2.96s-.3-5.61-1.33-6.58-6.37-3.32-8.44,0c-.59,4.36,1.55,4.36,1.55,4.36,0,0,3.21.52,3.39.22s.56-1.63-.22-1.85-2.59-.07-2.59-.07c0,0-2.04-1.89.11-2.19s5.59-.3,5.67,1.22.71,5.28-1.44,5.69-6.64,1.2-8.26-.65-2.59-2.26-2.59-5.78.81-6.41,3.22-6.93,10.78.44,13.44,2.61,4.41,3.61,4.86,6.11-.96,8.71-4.07,10.05-13.11,1.78-13.11,1.78c0,0-10.34-.43-11.12-6.76s0-12.56,0-12.56c0,0,.89-7.74,6.06-8.37Z"/>
    <path class="cls-8" d="M351.33,547.88s.47,4.26.91,4.2.59,4.09.59,4.09c0,0,.44,2.22,2.07,2.07s3.56-.74,3.56-.74v-6.38l-.3-1.24s1.19-.49,1.04-1.31-1.04-2.15-1.56-2-.15-.67-1.33-.67-2.52-.15-2.67.37-2.34.37-2.32,1.59Z"/>
    <path class="cls-8" d="M360.16,541.25s1.93,1.93,3.11,2.07,3.26,4.37,1.33,6.26,0,6.19,0,6.19c0,0,4.15,4.59,7.11,4.15s6.07-.21,6.37-1.66,1.33-.37,1.33-.37c0,0,3.72.52,4.46-.3s5.69-4.34,5.39-6.34-.37-5.19-1.41-6-2.19-1.52-2.74-1.52-1.1-5.66-1.1-5.66c0,0-1.68-.56-4.34-.45s-4.37-2.04-4.37-2.04l-8.85-.07s-2.44,2.67-.67,2.56,8.93.11,8.93.11c0,0,5.96,1.89,5.96,4v2.11s-1.89,2.33-1,4.56,2.11,3.58,3.22,3.23,2.22-2.57,1.89-3.01-1.67-1.56-2-.67-1.07-.67.01-1.93c.96-1.11,1.54-2.41,2.32-.57l.78,1.83s.06,1.47.01,2.86c-.04,1.17-.43,2.12-1.5,2.32-2.33.44-5.15.1-5.6-2.68,0,0-1.36-5.39-.58-6.06s.78-3.56-1.89-4.22l-2.67-.67-6.89.44h-6.63s-.74,1.15,0,1.52Z"/>
    <path class="cls-8" d="M313.37,526.49c.23-.06.43-.16.61-.3.89-.72,3.8-3,5.29-3h2.66c.62,0,1.18.36,1.43.93.84,1.89,2.82,6.04,4.02,6.3,1.56.33,1.78,4.33,0,4.67s-3.22,3.44-3.22,3.44c0,0-1.33,2.99-3.67.99s-4.33-6.88-7.56-7.22c-2.07-.21-3.77.13-4.72.41-.53.16-1.11.03-1.52-.34-1.24-1.12-3.73-3.41-3.73-3.74,0-.44-4.62-2.25-2.24-3.14s7.13-.98,8.17.06,1.83,1.39,2.28,1.39c.33,0,1.57-.29,2.19-.44Z"/>
    <path class="cls-8" d="M312.38,522.11s4.44-3.11,8.44-3.11,2.14,3.11,2.14,3.11h-5.07s-4.4,2.7-4.4,3.33-2.19.04-3.52-.89-6.41-1.04-6.81-.81l-.41.22s-3.3,1.41-6.41,1.19l-3.11-.22s2.67,2.33,4.11,2.56,4.04.22,4.58,1.33,4.09,4.23,4.09,4.23c0,0,1.67.88,4.78.88h3.11s2.89,2.06,5.67,5.59c3.4,2.09,2.48,2.28,3.4,2.41s1.16,4.18-.84,3.98-9-7.31-9-7.31c0,0-1.7-1.44-4.68-1.78s-7.1-1.11-7.87-3.22l-.78-2.11s-.44-.56-3.33-1.22l-2.89-.67s-4.06-3.61-4.17-3.39-4.44-2.15.39-3.02,9.59-.56,9.59-.56c0,0,2.71,0,2.54-.67s1.83-1.7,2.65-1.7,3.26-.3,4.52.74,2.74.96,3.3,1.11Z"/>
    <path class="cls-8" d="M358.13,545.9s-.64-3.68,1.09-2.8,3.02,1.83,3.02,1.83c0,0,1.72,1.39,1.5,2.17s-1.83,1.28-1.67,2.39.33,5.89.33,5.89c0,0,2.63,3.47,5.07,4.57l2.44,1.1s6.33.22,6.67,0,1.33-1.63,3.48-1.63,4.89-.99,5.11-1.16,3.47-3.06,4.1-3.51,1.82-6.81,1.52-8.07l-.3-1.26s-2.04-1.48-3.04-1.93-1.78-1.6-1.67-3.3l.11-1.7s-1.67-2.33-2.22-2.28l-.56.06-3.89-.06s-3-.72-3.11-1.72-6-.44-6-.44l-2.67-.15s-1.89-.6-.22-1.44,4.33-.77,4.33-.77h6.33s2.11,1.92,3.67,1.92,4.78.67,4.78.67c0,0,3.5,3.28,4.49,5.23s1.73,5.06,2.18,5.06.74,5.93.74,5.93l-.89,4.84s-4.89,7.18-9.78,7.95-9.94.75-12.17.7-2.87-.47-2.87-.47c0,0-6.86-3.11-8.24-6.67v-10.22s-.57-.91-1.71-.74Z"/>
    <path class="cls-8" d="M394.21,517.48s-1.14,2.24-.43,2.9l.7.67.66.75.05,10.27.07,2.48s-.06,1.05-1.06,1.66-.13,5.73-.13,5.73c0,0,3.46,1.98,5.35,1.2s4.73-2.82,4.73-2.82c.19-2.48,1.6-2.24,1.6-2.24.74.15,1.94.75,2.92,1.58,1.18,1,10.12-.48,12.63-4.59l1.71-1.28s3.33.39,7.11-2.86,4.89-4.69,4.89-4.69c0,0,3-3.44,3.44-5.89s3.39-4.4,3.39-4.4c0,0,2.83-4.74,1.71-5.96s-1.77-1.08-1.77-1.08h-7.74l-5.93,3-1.63,1.33s-5.44,2.93-10.11,1.81l-4.67-1.11-3.98-1.11c-2.22.22-3.01.37-3.01.37l-1.67,1.29s-2.33-2.67-5.67-2.89l-3.33-.22-3.33.44c-.89,0-3.22,3.44,0,3.56s2.11-.56,2.44-.56,3.22-1.56,5,1.89c0,0,1.44,2.33,3.33,1.44s3.66-1.68,3.66-1.68c2.7.3,6.19-.28,7.82,1.23,2.14,1.98,7.63,2.01,7.63,2.01,0,0,3.67-1.33,5.11-2.44l1.44-1.11,3.78-2.56s.78-1.22,2.89-1.22h2.11l2.44.11s0,4.67-1.78,5.78l-1.78,1.11s-2.89,5.55-6.11,7.06l-3.22,1.5s-3,3.33-8.11,2.56-10.54-5.08-10.54-5.08c0,0-7.24-1.92-7.13,3.3s3.78,3.73,3.78,3.73c0,0,1.89-.85,1.56-1.85s.79-2.28.79-2.28c0,0,1.7,1.88,1.07,2.7s-1.53,3.28-3.05,3.21l-1.52-.07s-4.48-.41-4.48-3.07v-2.67l.8-2.61s1.26-2.67,3.44-2.67,5.8.23,5.8.23c0,0,3.9,2.41,5.64,4.25,1.92,2.02,10.12.02,13.53-2.54s3.78-4.11,3.78-4.11l1.91-2.13s2.24-1.23,2.5-1.68c.48-.83.33-3.65-1.84-2.62-2.07.98-2.87,1.51-2.87,1.51,0,0-6.48,5.74-9.93,5.85-3.07.1-3.12,0-3.12,0,0,0-2.63-1.4-4.44-1.98-.59-.19-1.73-.5-2.33-.89-.91-.59-2.02-.78-3.07-.52l-5.45,1.33-3.8.17s-.56-1.44-1.44-1.78l-.89-.33-1.88-.42Z"/>
    <path class="cls-8" d="M367.03,515.77s.67-5.11,5.67-5.44,9.11,2.07,9.11,2.07c0,0,2.59,3.63,4.26,3.59,1.09-.02,2.99,0,4.43,1.15.76.6,2.14,2.48,2.06,4.25-.26,5.15.17,15.63.17,15.63,0,0-2.5,1.33-2.72-1.81s-.71-12.93-.71-12.93c0,0-.96-4.11-3.96-4.22l-3-.11-1.17-.48s-1.35-1.78-4.83-2.15-6.54.11-7.13,1.07-2.57.04-2.17-.63Z"/>
    <path class="cls-8" d="M365.53,523.8s1.53-7.31,9.3-6.77c3.07.22,5.26,1.63,5.26,1.63,0,0-.15,1.22,1.85,1.26s5.08.59,5.08.59c0,0,1.26,2.56,1.04,5.39s.26,7.33.26,7.33l-5-1.54h-2.89s-1.61-1.85-4.94-1.85-5.85-.34-5.85-.34l-2.36.58c-.3.33-1.74-6.28-1.74-6.28Z"/>
    <path class="cls-8" d="M325.74,523.18c.07-3.7.59-8.18.59-8.18,0,0,3.32-3.03,5.63-3.22,4.22-.34,4.46-2.76,4.61-3.95s3.61-2.95,5.17-3.43c1.98-.61,6.52-1.74,10.37,1.45,4.74,2.52,4.07,2.15,5.41,2.15s8.26,1.37,8.48,6.7-1,5.56-1,5.56l-1.3,3.54s1.36,3.32,1.83,3.54,2.03,4.89-.86,7.56-7.33,6.66-9,8.44c-2.13,2.28-9.04,1-9.04,1,.09,0-1.85-2.05-5.22-1.92-1.86.07-9.85-.44-10.07-4.74s-.52-8.81-.52-8.81l.67-9.86s2.44-2.81,4.11-3.14l1.67-.33s1.89-2.33,2-3.56,5.44-3.81,7.33-3.07,5.78,2.07,5.78,3.74c2.9,1.56,3.44,1.56,4.56,1.22s5.89,1.67,4.44,4.22-2.36,4.5-3.36,5.1-.03,2.97.92,2.93,5.28,2.24,2.94,4.63-6.6,4.77-6.6,4.77c-.53,1.29-2.75,4.81-5.53,3.99s-4.44-2.03-7.33-2.2-5.26-3.06-5.26-3.06c0,0-.93-2.67,0-4.56s0-7.67,0-7.67c0,0,2.04-3.83,6.15-5.02,1.44.21,1.11-1.09,1.11-1.09,0,0,3.85-1.63,4.93,1.3s3.7,1.79,3.7,1.79l-.48,6.75s-2.19.02-2.48-1.79-2.19-3.82-2.19-3.82c0,0-5.63-.74-6.22,1.04-1.19,1.41-1.59,2.01-1.59,2.01l.48,4.93s1.72,2.62,3.05,1.84-1.05-1.99-1.05-1.99c0,0-2.28-1.65-.46-4.16s4.52-1.85,4.52-1.85c0,0,1.7-.48,2.04,3.17,1,2.61.89,2.72,1.37,2.72s3.9-.11,3.9-.11c0,0,.62-2.67.73-5s-.83-4.86-.83-4.86c0,0-4.44-2.41-3.92-3.52s-3.93-.89-5.41-.15-4,1.11-4,1.11c0,0-4.22,2.15-4.52,4.59s.22,7.56.22,7.56c0,0-1.93,2.13-1.04,7.25,1.41,1.43.38,2.38,3.34,3.27s6.59,1.33,6.96,1.85,5.4,1.61,7.7-.09,6.06-3.52,6.06-3.52l4.61-4.83s-.37-4.61-1.33-5.27-2.66-1.32-2.66-1.32c0,0-1.05-.89,1.25-2.74s2.59-5.05,2.59-5.05c0,0,.16-3.76-3.47-4.5s-8.3-2.75-9.48-3.6l-1.19-.85s-6.07-2.31-9.56.85-4.01,4.84-4.01,4.84c0,0-2.29,1.05-3.55,1.49s-3.11,3.41-2.89,4.89.07,7.48,0,8.44-3.86-1.69-3.79-5.39Z"/>
    <path class="cls-8" d="M161.48,507.44s2.07,7.41,4.3,9.33c.58.5,1.04.99,1.96,1.2,2.6.59,6.23.06,6.23.06,0,0,.89-1.55-.54-2.19-1.11-.49-.74-2.17-1.49-3.58-1.14-2.14-.49-3.72-.3-4.82.46-2.63,2.26-3.85,2.26-3.85,0,0,5.78-5.31,9.33-2.06s4.96,7.29,4.81,8.2-1.7,6.32-3.48,6.32-8.32-1.48-8.47-5.77,1.88-5.49,1.88-5.49c0,0,3.48-.63,4.43,1.37s2.28,4.33,1.28,4.67-.94-1.08-.94-1.08c0,0-1.46-3.64-3.06-3.94-2.26-.42-2.38,1.77-1.99,3.41s1.3,4.34,2.58,4.64,4.24.17,4.24.17c.75-.58,2.21-3.92,1.69-5.81s-2.06-3.69-2.67-4.58-4.66-2.51-6.95-.58-3.48,4.22-3.19,5.41c-.07,2.15.42,5.63,1.39,6.67l.98,1.04s2.26,1.99,2.26,3.25,4.26,2.83,4.26,2.83c1.78.22,5.79-.67,5.79-.67l3.21-4.22c.78-.5,1.72-5.59,4.94-5.78.61-.06-.24-1.08,1.21-1.06s1.91.01,1.91.01h2.24s1.25,2.83,2.58,2.38,2.66-2.51,1.39-2.94c-1.13-.38-1.52-1.07-1.54-1.72-.01-.33-.29-.59-.63-.57l-4,.23s-5.33-.11-8.33-3.94-5.24-5.37-5.24-5.37c0,0-6.26-2.48-9.15-1.54s-9.69,6.3-9.69,6.3c0,0-3.11,2.56-4.22,2.48s-1.26,1.61-1.26,1.61Z"/>
    <path class="cls-8" d="M149.65,500.32s4.15,3.26,6.81,2.67,6.81-2.67,6.81-2.67c0,0,3.26-6.99,5.77-7.14s9.94-.28,9.94-.28l7.24.53s4.15.96,5.04,3.4,5.33,5.26,6.52,5.11,3.13,0,3.13,0c0,0,3.24,3.56.87,4l-2.37.44s-4.7-.92-8.59-5.04-3.85-4.15-3.85-4.15l-3.21-.37s-2.6-.89-4.78-.85c-1.6.03-2.62,0-2.62,0,0,0-2.28-.33-4.93,2.15-2.87,2.68-2.78,2.78-2.78,2.78,0,0-3.25,3.14-6.19,4.26-2.49.95-2.94.87-2.94.87l-2.44.35s1.46,1.07,2.02,1.19,2.11,3.78,2.39,4.56,3.5,7.89,6.06,7.78c2.31-.1,7.19.08,8.1.12.11,0,.21.03.31.07.43.17,1.58.7,2.03,1.59.56,1.11,3.56,2.22,4.89,2s4.38-.51,4.38-.51c0,0,4.29-1.71,4.51-3.27s2.67-6.33,4.11-6.67,2.78-1.56,4.11-1.11l1.33.44s3.11,1.44,3,1.78-.5,2.11-2.44,1.83-4.17-1.61-4.89-.06-1.72,8.67-5.72,9.17-14.01.05-14.01.05c0,0-.93-2.59-4.33-2.59s-5.39-.49-5.39-.49c0,0-7.26-.99-8.22-5.55s-1.3-6.41-2.93-6.85-1.93-.32-1.93-.32c0,0-3.67.62-4.8-2.57s-1.8-5.26-1.8-5.26c0,0,.04-2,1.8-1.41Z"/>
    <path class="cls-8" d="M201.17,437.83v7.56s-.56,4.17-1.74,5.2-1.83,5.44-1.67,6.67.22,7.26,4.11,7.7,7.22,0,7.22,0c0,0,4.22-1.78,4.22-4s-1.33-4.11-1.33-4.11c0,0-2.56-.22-2.33,1.22s.33,4.22-2,4.11-5.89-1.44-5.89-3-.67-5.67.44-6.67,2.11-2.78,2.11-3.39-.22-9.22-.22-9.22c0,0-.35-2.28,1.76-2.07s9.15,2.33,9.44,4.41,2.67,6.22,3.26,6.52,4.33,2.33,4.33,4v3.89s-1,1.89-1,3,.11,4.89.11,4.89c0,0-1.11,3.67-2.67,4.67s-5.44,4.11-5.44,4.11c0,0-.33,3.22,1.26,2.89s8.09-5.19,8.09-5.19c0,0,2.56-.98,2.67-2.98s.26-8.09.93-8.2,2.56-4.89,1.22-8.22-7.78-7.78-8.11-7.78.11-2.78-.78-3.89l-.89-1.11s-11-6.44-13-6.11-3.78,2-4.11,5.11Z"/>
    <path class="cls-8" d="M197.74,465.12s-3.23,3.7-3.38,5.78.74,4.44.74,4.44c0,0-2.57,3.15-2.63,4.48s-.06,6.78,0,7,3.93,4.33,5.27,4.44,4.45-.17,4.51-1.61-.56-2.89-1.22-2.89-4.33-1.33-4.56-3.33.54-5.67,1.27-6.11,1.4-2.78.84-3.33-.22-4.22.56-4.78,1.44-2.56,1.44-2.56c0,0,.1-2.41-2.84-1.54Z"/>
    <path class="cls-8" d="M199.69,472.36s-.44-5.48,6.67-6.04,7.93-4,7.93-4c0,0,1.19-8.43-2.26-7.86s-4.61,3.12-4.61,3.12l.5,2.22s-3.33,2-4.56-.89.44-5.78.44-5.78c0,0,2.05-1.89,2.25-3.67s0-8,0-8c0,0-1.03-2.44,3.42-1.11s5,2.67,5,2.67l.22,3.33s.56,2.89,2.56,3.22,3.67,1.22,3.33,3.78.04,10.67.04,10.67c0,0-1.93,4-4.26,5.33s-4.11,3.44-4.11,3.44l-.33,1.89s-2.44,4-4.59,5.33-3,4.44-3,4.44c0,0-3.74,2.74-5,.44s-1.04-5.78-1.04-5.78c0,0,1.7-1.56,1.78-2.52s-.37-4.26-.37-4.26Z"/>
    <path class="cls-8" d="M211.14,514.69s-3.72,6.49-.74,9.81,6.24,4.48,10.23,4.63,8.69-1.9,8.69-1.9c0,0,3.13-3.08,3.13-6.01s-1.45-6.82-3.34-6.97-2.74-.12-2.74-.12c0,0-3.29,0-2.24,2.69s1.15,4.07,1.15,4.07c0,0-1.47,1.26-2.37,1.39s-5.33-1.75-5.78-3.81c-.52-2.4.22-4.42.22-4.42,0,0-4.06-2.29-6.22.64Z"/>
    <path class="cls-8" d="M218.66,517.07s.21-4.31,2.66-5.19,4.53-1.66,4.53-1.66c0,0,1.68-.39,2.39-.15.81.27,1.75,2.67.72,2.59-2.22-.16-6.67.07-6.89,1.56s-.07,3.56-.07,3.56c0,0,.88,1.03,1.37,1.22.38.15.33,1.81-1,1.59s-3.92-.88-3.7-3.51Z"/>
    <path class="cls-8" d="M208.52,512.11s-3.78,1.41-3.78,5.78,1.71,8.09,2.48,8.9,6.9,6.59,8.75,6.89,9.88.8,11.8.36,7.82-4.5,8.2-5.47.18-7.98.18-7.98c0,0-2.22-2.63-2.74,0s-2.64,6.8-4.88,7.75-9.93,2.92-14.6-.11-5.15-3.55-5.15-3.55c0,0-1.97-5.46-.93-7.02s2.44-3.69,2.44-3.69c0,0,1.3-2.66-1.77-1.87Z"/>
    <path class="cls-8" d="M214.93,496.84s.33-6.36,4.33-6.92,7.2,1.14,9.27,3.46,1.73,6.43,1.73,6.43c0,0,.31,4.67-1.73,5.89s-4.84,5.76-9.89,6.27-10.69-.71-12.59-4.04-2.27-7.41-2.27-7.41l.54-3.67s.61-3.03,0-3.84-.69-5.95.42-7.16l1.11-1.21s2.74-5.99,5.48-6.51l2.74-.52h9.89s8.78,1.65,10.63,7.28-1.81,4.96-1.81,4.96c0,0-.1-8.09-8.76-7.43-.73-.59-1.91-.67-2.13-1.56s-6.69-1.33-8.75-.3-5.69,5.28-5.69,5.28l.19,7.6s1.04,3.91,0,3.4-1.04,2.16-1.04,2.16l.19,4.17s2.94,4.61,5.78,4.94,6.09.67,8.27-.78,4.17-2.56,4.95-3.72,4.13-5.59,1.74-7.98-6-3.41-7.7-1.52-1.81,5.7-1.81,5.7c0,0-3.74.91-3.07-2.97Z"/>
    <path class="cls-8" d="M213.14,497.24s.38,4.74,3.13,4.67,4.18-3.19,4.18-3.19c.26-1.7-.7-3.92,1.37-3.88s4.37.57,4.3,2.01-.74,3.66-1.56,3.51-.53,2.37-.53,2.37c0,0-2.11,4-5.38,3.85s-9.82-.85-9.83-3.96-.81-6,.33-6.74,0-7.22,0-7.22c0,0,1.37-5.59,4.48-6.26s6.89-.59,8.37,1.19,2.02.74,2.02.74c0,0,2.57-1.48,3.83.22s3.33.96,3.19,4.81-5.41-1.41-5.41-1.41h-6.34s-6.43,1.7-6.15,9.3Z"/>
    <path class="cls-8" d="M233.78,479.87s-.15-6.52,4.74-6.22,5.63,1.63,5.63,1.63c0,0,4.44,1.08,1.33,2.84s-3.48,3.13-3.33,3.89-.37,4.02,0,4.39.89,2.07-.96,1.78-4.37.03-4.37.03c0,0-.74-8.4-3.04-8.33Z"/>
    <path class="cls-8" d="M248.08,476.22s5.73,4.07,3.11,5.78c-1.48.96-2.48,3.6-1.7,3.84s4.78.13,4.78-.54,1.78-2.44,1.78-2.44c0,0,.67-5.7-1.89-6.63s-6.07,0-6.07,0Z"/>
    <path class="cls-8" d="M229.66,477.3c-1.11-.91-1.45-2.46-.8-3.74,1.38-2.72,4.11-6.14,7.35-5.84,4.78.44,7.13.77,7.13.77,0,0,3.48,3.14,6.04,3.03s7.78-.11,9.11,1.56,2.13,3.87,1.91,5.87-.96,9.96-4.04,10.3-8.28.83-8.28.83c0,0-4.81-1.36-4.59-4.24l.22-2.87s.69-3.15,1.25-3.22,2.12-.3,2.6.22l.48.52s.19,1.74-.81,2.04-.64,3-.64,3c0,0,1.6,1.89,2.94,2s4.69-.47,6.02-1.68,2.56-3.13,2.56-3.84-.33-4.41-.33-4.41c0,0-2.11-3.29-3.44-3.4s-8.22-.55-8.22-.55c0,0-3.05-1.45-5.92-1.45s-7.16.22-7.73,2.44c-.3,1.16-.67,2.14-.95,2.81-.21.5-.85.66-1.28.31l-.56-.46Z"/>
    <path class="cls-8" d="M236.78,494.84s-2.73,5.96-.81,8.07,4.55,2.07,4.55,2.07l1.6-1.27s-1.59-1.02-2.24-2.8,1.24-4.07,1.24-4.07l2.78-1.27s-1.11-2.15-2.67-2.13-4.44,1.39-4.44,1.39Z"/>
    <path class="cls-8" d="M245.75,496.84s2.32,2.06,2.51,5.01c.04.59,0,1.21-.18,1.85-1,3.9-1.89,5.25-4.19,6.28s-7.57,1.03-7.75.88,0,1.78,0,1.78c0,0,2.34,2.96,6.78,3.19,2.07.52,1.55.96,1.55.96,0,0,4.01,1.78,6.6-.67s2.49-5.37,2.26-6.59,1.33-1.55,1.33-1.55c0,0,2.98-3.11,3.27-6.89s-2.7-5.22-4.6-5.33-6.33,0-6.33,0c0,0-1.86-.06-1.27,1.08Z"/>
    <path class="cls-8" d="M260.97,485.84s-2.48,3.53-4.23,4.24c0,0,1,.81,1.73,1.37s3.89,2,3.89,2l3.09-2.15s1.67-.92,2.78-.48l1.11.44s2.33-1.68,3.11-3.06,3.44-3.16,5-3.05,6,.11,6.11,1.56-.12,1.82-.12,1.82c0,0-.28,3.22-1.72,3.22s-3.11-.1-3.11-.1c0,0-1.78,1.5-.06,2.11s3.78-.31,5.11-1.2l1.33-.89,1.78-1.59s2.56-.53,4.11-.52,4.78-.66,5.44-1.99l.67-1.33,1.56-1.67s.43-1.11,1.49-1.11,4.21,0,5.53-2.11,1.09-5.52,1.09-5.52c0,0,1.89-3.25,2.89-3.37s3.33-2.67.67-2.22-5.78,1.22-6.89,2.78-4.22,4.11-6.33,4l-2.11-.11s-1.67-.82-2.33-1.08-5-.41-5.78,0-.89,1.92-2.11,1.78-9.33,0-9.33,0c0,0-2.89.19-5.11,2.41l-2.22,2.22s-3.07,3.67-7.04,3.61Z"/>
    <path class="cls-8" d="M262.67,494.84s-.22,2.07,1.44,2.01,4.33-1.78,4.93-1.58,2.26-1.52,1.3-2.04-2.19-.7-3.74-.41c0,0-.48.8-1.37.91s-2.81.26-2.56,1.11Z"/>
    <path class="cls-8" d="M243.17,501.24s-3.89-2-.78-2.67,4.22,2.11,4.22,2.11c0,0,1.56,6-1.22,7.44s-9.86,1.31-11.22-.33-2.41-6.2-2.41-6.2v-5.88s2.74-4.56,5.19-5.64,5.78-1.74,6.94-.85,2.39,1.7,2.28,2.07,1.07.67,1.67.56,4.74-1.67,7.19-.48,7.32,4.56,7.62,6.7-1.27,10.76-3.77,12.7c-.92.83-1.05,2.33-.92,3.33s-.58,4.33-2.36,5.44c0,0-3.74,1.59-3.93,2.3s-6.37,1.96-11.85-.74-7.37-6.15-7.37-6.15c0,0-.57-2-.69-2.44s-1.59-.55-1.59-.55c0,0-.67-4.43-.28-5.39s1.94-1.24,2.17.98-.06,3.5-.06,3.5c0,0,.78.99,1.28,1.02s3.33,5.02,5.26,5.34,5.35.54,5.35.54c0,0,4.57,2,6.57.15s3.19-3.26,3.93-3.33.67-5.56.67-5.56c0,0,2.07-2.5,3.7-3.43s.59-7.75.59-7.75c0,0-4-5.48-7.26-5.04s-3.34.96-3.34.96c0,0-3.83.9-4.28-.96s-5.94-2.07-7.27-.81l-1.33,1.26s-2.57,2.44-2.1,4.89.39,6.07,2.76,7.11,5.26.34,5.26.34c0,0,1.48-.17,1.63-.81s.74-3.49-.26-3.73Z"/>
    <path class="cls-8" d="M266.49,511.97s3.76-1.67,4.54-2.41l.78-.74,5-3.03,6.11-3.75s3.89-2.11,7.44-2.33,11.89-.5,11.89-.5c0,0,4.89-1.24,6.44-4.37s8-12.77,8-12.77l3.44-6.8s5.56-8.56,8.5-9.67,4.61-1.78,5.94-1.67,2.44.44,2.56,2.11.22,3.67-1.11,3.67-7,2.89-8.56,5.44-6.89,14.44-7.56,15.56-6,9.11-9.22,11.11-6.44,2.44-9.67,2.44-10.67.11-10.67.11c0,0-4.89.78-7,2.78s-6,4.93-6,4.93l-2.67,1.14s-.89.93-2.56.81-5.65,0-5.65,0c0,0-1.09-1.26,0-2.08Z"/>
    <path class="cls-8" d="M348.47,482.06s-.59,7.53,1.56,7.75,3.33-1.68,3.7-3.88,4.3-2.35,4.67-1.01,1.24,6.48-.91,7.96-7.17,2.12-8.65,1.52-4.59-2.08-4.88-4.15,0-8.74,0-8.74c0,0,3.63-4.61,4.52.54Z"/>
    <path class="cls-8" d="M335.28,472.04s-9.01,7.98-9.54,13.91-1.52,8.81-1.52,8.81c0,0-3.31,7.43-6.42,8.95s-6.37,6.46-13.93,6.28-10.65-.08-10.65-.08c0,0-2.83,1.39-6.98,3.31l-4.15,1.93s-4.38,1.73-7.67,2.27-5.79,1.73-4.1,2.32,10.17.86,10.17.86l7.01-3.18s6.59-3.29,10.59-3.37,12.3,0,12.3,0c0,0,8.16-1.42,11.27-4.8s6.5-9.17,6.5-9.17l1.78-3.24,1.78-8.64s1.33-7.49,3.56-9.31,4.3-3.08,4.3-3.08c0,0-.3-4.96-4.3-3.77Z"/>
    <path class="cls-8" d="M338.39,478.11s-3.28,5-3.06,9.35,3.6,12.64,10.72,13.87,14.95.52,14.95.52c0,0,6.39-2.22,8.61-2.11s4.33.03,4.95.59,9.95,1.89,11.28,1,6.98-4.11,7.93-4.33,2.38-2.66,0-2.49-3.38,2.94-7.49,2.72-8.62-.31-8.62-.31l-4.56-1.67s-5.38-1.13-10.05.98-11.74,1.44-11.74,1.44c0,0-9.66-2.07-10.1-6.37s-.16-9.24-.16-9.24l1.93-3.17s-1.41-2.77-4.59-.78Z"/>
    <path class="cls-8" d="M340.96,450.74s-3.31-3.7-4.54-.15,3.22,5.63,3.22,5.63l1.32.59s-.29,4.15-1.32,4.15-7.76-1.48-8.5-4.74.15-7.85,2.2-9.78,4.98-3.11,4.98-3.11c0,0,4.28-.44,5.51,1.33s2.55,5.56.79,6-3.08.07-3.66.07Z"/>
    <path class="cls-8" d="M269.78,473.64s6.91-2.86,10.35-1.08c3.44.33,3.94-.17,4.39-.58s8.44-.84,8.44-.84h4.44s2.07-.59,2.96-1.63,2.09-3.26,4.31-3.41,7.99-1.16,7.99-1.16l4-1.02h1.78v4.86s-2.07,3.96-2.07,4.86-3.85,2.76-3.85,3.75-2.37,3.81-2.37,6.04-7.56,5.96-8.07,5.55-4.07,1.74-4.07,2.71-3.26,2.9-5.04,2.82-5.6.1-7.52,2.07-4.7,2.59-7.29,1.92-7.04-3.1-6-6,2.52-4.97,4.67-5.19,4.74-.81,4.96.3,1.19,2.7-1.33,2.46-4.59,1.22-4.59,1.22c0,0-.23,2.84,1.92,3.73s3.04,1.82,4.3.69,3.67-3.21,3.67-3.21c0,0,2.11-.71,3.89-.71s5.39-.94,5.83-1.72,3.22-4.61,5.06-4.89,4.67-1.39,5.44-2.22,2.11-4.76,2.11-5.57,2.21-3.48,3.38-4.04,3.54-3.44,3.54-3.44c0,0,.69-2.28-1.14-2.22s-6.83.7-8.5,1.7-4.37,4.25-4.37,4.25c0,0-1.56.38-3.04.38s-8.67.07-8.67.07h-3.11s-1.63.22-1.63.81-2.59,1.59-4.37,1.31-6.15,0-6.15,0h-1.56s-2.85,2.25-3.19,2.67-2.78,3.17-2.78,3.17c0,0-3.58.1-2.58-1.87s5.86-6.56,5.86-6.56Z"/>
    <path class="cls-8" d="M489.82,451.19l5.83-.84s2.84,4.39,5.5,6.17,5.78,2.44,7.56,2.67,3.78,0,3.78,0v2.67s-2.37,2-3.85,1.85-4.44,1.93-4.89,2.81-1.33,4-1.33,4c0,0-1.19,4.44-2.67,5.04s-4.74,1.83-4.74,1.83c0,0-3.56,2.32-4.15,4.1s-2.82,6.03-3.71,6.77-4,3.15-4,3.15c0,0-1.93,1.19-1.78-3.41s0-6.74,0-6.74c0,0-.29-.81-.95-.81s-.3-4.89,0-5.48,1.04-2.15,1.26-2.67.81-3.48.81-5.33,1.74-3.85,2.33-3.85h.59l2.81-2.16s1.63-1.84,1.63-4.06-.04-5.7-.04-5.7Z"/>
    <path class="cls-8" d="M484.45,452.12l-.41,3.97s-.62,2.14-1.66,2.73-2.34,3.26-2.34,3.26c0,0-2.55.85-2.55,1.83v6.26s-.3,2.73-1.04,2.73-2.67,4.7-1.78,6.72,1.63,3.94,1.63,5.43-.3,7.7-.3,7.7c0,0,.15,2.66-.89,3.48s-2.22,3.49-1.48,4.23,3.11,1.19,4.59,0,4.15-2.52,5.04-2.52,4.89-1.63,4.89-2.52,3.41-3.86,3.41-3.86c0,0,2.96-2.95,2.96-3.4s1.04-3.56,2.37-4,5.63-1.48,5.63-1.48c0,0,3.11-2.7,3.11-3.06s2.81-1.24,2.81-1.24c0,0,1.63-3.11,1.48-4.89s0-4,0-4c0,0,1.55-2.07,2.55-2.37s4.66-2.51,5.11-2.86c.31-.24.88-3.23,1.2-5.07.13-.73-.48-1.37-1.21-1.29-1.39.16-3.31.46-3.5.92-.3.74-1.04,3.51-4,5.09l-2.96,1.58s-2.28.58-3.02,4.49-1.72,7.01-3.94,7.41l-2.22.4s-5.63,2.52-6.22,5.48-6.84,8.16-6.84,8.16l-2.79,2.53s-2.15-.76-2.04-3.13-.63-8.76-.63-8.76c0,0-.59-7.68-.3-8.28s1.85-2.41,1.85-2.41c0,0-.37-6.25-.37-6.03s1.09-2.43,2.5-3.02,4.44-3.37,4.78-4.25.39-5.94.39-5.94c0,0-2.85-1.11-3.81,0Z"/>
    <path class="cls-8" d="M517.26,420.49l-.59,5.78s6.22,1.19,8.3,4,1.78,3.85,1.78,3.85c0,0,3.15-1.07,3.26-1.52s.67-8.67.67-8.67c0,0,.44-2.11,1.56-2.22s2-1.89,0-2.33-3.07-2-5.3-1.78-4.04-.83-5.37.31-4.3,2.58-4.3,2.58Z"/>
    <path class="cls-8" d="M515.89,416.68s4.56-4.33,8.22-4.11,6,1.22,6,1.22c0,0,4.11,2.33,5.78,2.11s3.33,0,3.33,0l1-1.78s1.67-.67,2.11-.56,1.56-.22,1.89.56.22,2.39-.78,3.25-2.11,2.2-2,2.97-.78,2.44-2.89,3-1.67,1.8-2.11,2.4-.93,6.6-.93,6.6c0,0-.78,4.11-2.67,4.56s-4.11,1.89-4.44,1.89-2-2-1-3.11,4.44-2.22,4.44-2.22c0,0,.67-.22.67-2.56s.33-5.78.33-5.78c0,0,.78-2.11,1.44-2.67s2.33-1.89,3-2-.11-1.22-1.44-1.56-5.71-2.5-5.71-2.5c0,0-5.44-.74-6.92-.44s-3.33,2.07-4.26,2.22-4.04,2.33-3.07-1.5Z"/>
    <path class="cls-8" d="M456.41,434.12s-.89,2.43.59,2.57,1.63-.06,1.78-1.29-.3-1.97.89-1.97,2.07-1.48,1.48-2.07-4.44-1-4.74,2.76Z"/>
    <path class="cls-8" d="M443.97,429.58l2.22,1.39s1.63,4.09,3.26,4.53,4.14.86,4.73,2.45,3.41,5.81,4.56,6.03,3.74.67,4.7.59,2.89-.96,2.96-1.7-1.26-2.81-1.85-3.26-2.96-4.33-2.96-4.33c0,0-1.67,2.63-3.85,2.85-1.55.16-2.52-.81-2.52-1.85s-.04-3.7-.04-3.7c0,0,1.96-2.3,2.7-3s3.45,0,3.45,0c0,0,1.29-1.89.85-2.78s-2.67-1.67-4.74-1.13-5.04,2.47-5.04,2.47c0,0-2.07,1.19-3.56,1.19h-1.48l-3.41.26Z"/>
    <path class="cls-8" d="M436.38,428.32s-2,4.31,0,4.38,3.78,1.28,4.67,2.34,3.78,4.92,3.78,4.92c0,0,3.78,1.47,4.89,1.47s3.78,1.2,3.78,3.16,3.85,3.07,5.26,3.73,7.67.89,7.67.89c0,0,3-1.19,3.29-1.41s1.11-2.95-.59-3.21l-1.7-.27s-.96,1.63-2.89,1.56-5.51.26-8.38-2.6l-2.87-2.86s.56-3.22-2.44-3.11-5.33-3.19-5.33-3.19c0,0-.63-3.26-1.54-3.14l-.91.12s-1.78-2.31-.89-2.77l.89-.45s3.52-1.15,5.44,0,4.32-1.63,4.32-1.63c0,0,2.23-2.33,4.23-2.33h6s4.11-.44,2.33-2.56-8.11-1.56-8.11-1.56c0,0-5.22,2.22-6.22,3.22s-3.89.78-5.11.78-5.22.73-5.78,1.7-3.8,2.83-3.8,2.83Z"/>
    <path class="cls-8" d="M468.17,429.11l-.48,1.01c-.22.41-.33.86-.33,1.33v2.13c0,.39.08.77.24,1.13.55,1.25,2.01,4.08,4.09,4.08,1.96,0,4.25.53,5.07.96.25.13.45.32.61.55.81,1.18,3.62,5.13,5.13,5.51,1.38.35,5.02.22,6.57.15.47-.02.93-.16,1.33-.41,1.63-.99,5.93-3.71,5.8-4.61s0-4.74.06-6.04c.02-.38-.04-.75-.18-1.11-.17-.42-.47-.96-1.01-1.43-1.6-1.4-4.57-2.59-6.59-1.4-.23.14-.44.28-.63.42-1.93,1.48-1.17,4.57,1.22,5.02h0c1.29.25,2.25,1.35,2.3,2.66s-.08,2.65-.89,2.77c-1.56.22-6.22.87-7.56-.46-.45-.45-.87-1.29-1.23-2.2-.86-2.18-.95-4.59-.32-6.85l.45-1.62c0-.56-.17-1.11-.48-1.58-.88-1.32-2.64-4.24-2.64-6.41s-3.18-2.08-4.6-1.89c-.42.06-.83.2-1.18.44l-.52.34c-.63.41-1.08,1.06-1.23,1.8-.13.65-.32,1.5-.58,2.33s-.45,1.85-1.07,2.21c-.55.32-1.05.59-1.34,1.15Z"/>
    <path class="cls-8" d="M502.47,433.86s.15,5.75,0,6.35l-.15.59s-.98,2.77-1.23,3.41.46,2.51,1.83,4.61c.73,1.11,1.18,2.46,2.61,2.81,4.15,1.01,10.72.71,12.35-.33s4.03-5.99,4.03-5.99l.54-8.58s-2.09-3.07-3.18-3.79c-.74-.5-.48,8.54-.48,8.54,0,0-2.4,3.94-6.72,5.17-2.94.84-7.5-2.6-7.5-2.6,0,0-1.75-4.06.47-4.06,1.3,0,3.18.58,3.47,1.01.23.34.62.53,1.03.43.77-.18,1.96-.56,2.92-1.39l1.54-1.33s1.24-2.3-.09-3.81-2.96-2.44-4.44-2.44-5.54.22-7.02,1.38Z"/>
    <path class="cls-8" d="M498.37,445.69s-1.45,3.18-1.01,4.21,5.19,6.37,8.44,7.11,8.44,1.93,11.41,0,8.59-9.04,8.59-9.04l.6-12.94s-3.59-5.88-7.43-6.91-6.17,0-6.48,0-3.87,1.04-4.91.89-5.93.44-6.22,1.33-1.19,1.48.74,1.7,5.19,0,5.19,0c0,0,5.19-.34,6.52,1.22s3.04,4.9,1.91,6.34-3.89,3.26-3.89,3.26l-2.31.52s-.61.28-2.6-1.54c-1.5-1.37-1.52.2-1.37.63.24.7.04.34,1.47,1.81s4.62,1.15,5.39.89,4.36-3.03,5.36-4.96.13-5.69-.06-6.09-1.44-2.54-1.44-2.54c0,0,.63-1.31,2.41-.61s5.31,3.22,5.31,5.06c0,1.42-.19,10.63-.19,10.63,0,0-5.12,5.71-6.76,6.44s-10.72.76-11.8,0c-1.01-.71-5.07-4-6.87-7.41Z"/>
    <path class="cls-10" d="M460.14,461.89c1.04-.86,2.59-1.32,4.62.34,1.78,6.67.43,9.15.43,9.15l-1.04,5.03-4.8-10.84c-.56-1.27-.28-2.8.79-3.68Z"/>
    <path class="cls-8" d="M408.95,504.41c-1.03-.56-2.31-.18-2.86.85-.84,1.58-1.7,3.61-.82,4,1.48.64,7.27,1.78,8.34,1.87,1.72.15,6.97-.73,9.1-1.11l-7.9-2.99c-2.74-1.04-4.65-1.96-5.87-2.62Z"/>
    <path class="cls-10" d="M456.01,495.18s2.32-2.13,4.25-1.83,2.67,2.22,1.78,3.56-7.04,4.73-8.64,5.1-3.14.46-3.14.46l5.75-7.28Z"/>
    <path class="cls-8" d="M410.04,499.06l-1.67,2.82s1.27,3,2.83,2.13,4.62-4.95,4.62-4.95l1.56-2.83,1.33-1.72s8.67-.67,9.44-.67h3.11l5.11-5.56,5.44.23c.44.33.61.76.61.76l1.39,1.67,8.53.89s1.56,1.27,1.86,1.94,3.72-.17,3.94-1.17-2.44-2.29-4.44-2.98-6.33-3.13-6.33-3.13c0,0-4.33-1.11-5.33-.89s-11-4.33-11-4.33l-6.95,5.58s-3.33,2.3-4.26,2.04c-.79-.22-9.79,10.16-9.79,10.16Z"/>
    <path class="cls-5" d="M538.75,331.54s7.67,2.89,8.56,7.33,3.11,6,3.11,6l5.78,5.11,1.56,9.11s-1.33.56-1.26,2.33.22,4.81.22,4.81c0,0,1.15,6.85.04,7.74s-.67,3.33-.67,3.33l-4.44,1.78-.78-.22s-2.56-.67-3.56-2.67,1.85-1.04,1.85-1.04l2.07-.15s2.96-2.52,3.11-4.15-.44-5.19-.44-5.19c0,0-2.07-2.37-.89-3.56s.89-8.44.89-8.44c0,0-7.11-6.67-7.11-7.11s-.44-5.33-1.78-6.81-3.41-2.07-3.41-1.04-.74,2.81-.74,2.81l-.44,4.89s.74,2.81,1.19,2.96.59,5.33.59,5.33c0,0-.25,3.82-4,4.89-1.94.55-2.29,1.36-2.79,2.24s-.78,1.75-.87,2.08c-.02.08-.04.17-.04.26v7.43l-4.43.44v-7.56s1.7-3.7,3.36-5.19,4.33-4.74,4.63-6.37-.15-12.44-.15-12.44l.85-8.96Z"/>
    <path class="cls-5" d="M540.93,370.39s.93-6.22,3.47-5.78,4.31,1.33,3.98,1.89-3.92,2.96-4.06,4.07-.41,2-1.41,1.56-1.86-.29-1.97-1.74Z"/>
    <path class="cls-8" d="M478.38,415.65s-9.37-.49-11.02,5.09-2.54,4.04-3.26,4.38-1.54,6.57-.65,9.36,4,9.62,7.61,9.16,7.48,6.08,7.48,6.08c0,0,10.94,2.08,15.19-.49s7.11-8.58,7.11-8.58v-7.63s-4-4.73-6.89-5.33-8.22.07-9.56,2.07c-.57.86-1.83,2.48-2.2,4.44-.49,2.62.13,5.62,1.53,6l2.44.67,2.89.33s4.22-2.18.67-3.22-5.7-.88-4.96-4.11,4.44-4.86,4.44-4.86c0,0,3.85,0,4.37.44s3.93,2.84,4.15,3.83.15,7.36.15,7.36c0,0-3.45,5.36-6.5,5.91-3.5.64-10.83.68-10.83.68l-3.67-4.36s-4.14-2.05-5.03-2.35-4.48-2.95-5.42-5.48,0-6.08,0-6.08c0,0,2.27-3.19,2.2-4.07s2.07-5.19,3.33-5.63,7.26-.44,7.26-.44c0,0,3.89-2.48-.83-3.17Z"/>
    <text class="cls-9" transform="translate(546.33 100.76)"><tspan x="0" y="0">e</tspan><tspan class="cls-6" x="6.01" y="0">c</tspan><tspan class="cls-7" x="11.32" y="0">c020</tspan></text>
    <path class="cls-5" d="M512.79,393.98s-2.95-8,3.88-10.94h2.79s3.56-5.41,6.93-5.41,6.76,1.43,8.2,5.09l.46,1.3s1.61,1.19,1.61,3.05-.29,3.47-.29,3.47c0,0-4.26.33-5.05,2.87,0,0-4.99-5.97-9.78-3.62s-2.64,5.48-2.64,5.48c0,0,2.25,1.37,3.13-.29s6.3.39,4.37,3.82-4.28,4.99-5.65,4.6-5.08-2.25-5.04-3.55,0-3,0-3l-2.92-2.85Z"/>
    <path class="cls-8" d="M542.24,341.01v5.87s2.22,4.49.91,8.44-6.46,7.69-6.46,7.69c0,0-2.54,4.35-1.37,7.87.78,1.37,4.57-.52,4.57-.52,0,0,.95-7.04,3.67-7.3s7.15,2.22,6.37,3.91-2.94,2.72-3.73,2.72-.29,3.86,1.27,3.99,2.81.12,2.81.12l1.81-1.86s.44-7.63-.86-7.34.65-3.5.65-3.5v-6.91s-5.87-5.35-6-6.78-2.27-6.92-3.65-6.39Z"/>
    <path class="cls-5" d="M537.94,399.35s-.24-.55-.73-.99c-.72-.65-1.98-1.04-3.8.99.87,2.35.22,2.48.87,2.35s1.34,2.09,2.36,2.22,6.94,0,6.94,0c0,0,1.65-1.83,2.17-1.83s0-6.52,0-6.52c0,0,.13-2.35,1.3-2.61s1.35-4.83,1.35-4.83l-4.52-5.74-2.31-4.76s-3.65.46-2.09,2.42,3.13,2.22,3.52,5.35-.52,6.26-.52,6.26c0,0-.65,1.96.39,2.74s1.3,4.47.13,5.25c-.49.33-1.58,1.02-2.54.91-1.34-.15-2.54-1.21-2.54-1.21Z"/>
    <path class="cls-5" d="M517.54,377.44s-9.76,1.8-9.66,13.09c.49,5.61,1.74,6.87,1.74,6.87l2.05,1.86s.44,6.97,4.05,8.04,9.01,0,9.01,0c0,0,4.38-2.53,4.67-3.86,0,0,3.62,6.3,10.66,6.5s11.25-5.97,11.25-5.97l.86-7.23s1.97-3.52,2.17-3.91c.11-.21,0-3.88-.61-6.38-.51-2.07-1.56-3.06-1.56-3.06,0,0-5.95-8.87-9.96-9.59s-8.79-.78-8.79-.78c0,0,2.71,3.26,4.14,3s3.91.39,3.91.39c0,0,8.15,9.59,8.28,12.07s-1.34,5.09-1.34,5.09l-.69.52.2,7.89s-3.85,3.85-6.39,3.78-9.2-2.02-8.87-5.87,3-4.11,3-4.11c0,0,3.13.52,3.46,3.33.46.78,2.54,1.5,2.8-.46s.31-5.6-4.57-6.2-5.48,2.22-5.48,2.22l-1.83-.39s-1.95-6.38-9.58-3.13c-.78.98-.65,3.39-.33,3.39s4.35-1.99,5.78.95c1.65,2.25.54,5.38.54,5.38,0,0-2.41,3.52-4.89,3.39s-7.24-1.83-7.7-5.87c.26-1.24.26-1.57.26-1.57,0,0-3.78-1.61-3.91-5.34s3.26-8.43,3.26-8.43c0,0,2.49-1.65,4.89-1.7.26-.33,3.48-5.54,6.34-5.35l2.86.2s6.63.86,7.44,5.48c.48,2.74,2.43,2.27,2.43,2.27,0,0,1.61.83,1.42,3.33s-.15,4.94,1.03,4.79,2.1-3.57,2.1-5.87-3.72-5.92-3.72-5.92l-1.62-.49s-2.49-8.74-11.39-7.65-7.73,5.3-7.73,5.3Z"/>
    <path class="cls-5" d="M481.81,418.93s2.5-9.45,9.74-8.98l3.47.39s7.57-3.65,11.67-1.3,8.84,7.36,9.02,11.7-2.03,6.24-2.03,6.24c0,0-12.53-.12-13.72,1.98-1.7-.51-3.14-1.98-3.14-1.98,0,0-4.08-2.25-5.58-1.48-2.76,1.41-5.21.44-5.21.44,0,0-1.5-4.93-.07-7.34s3.32-4.93,8.8-4.15l2.93,1.19s.81-2.76,5.81-2.45,7.1,4.72,6.9,6.55-3.39,3.39-3.39,3.39c0,0-4.11-.88-2.32-2.87s-1.34-.91-1.34-.91c0,0-3.06,4.41.26,5.41,3.67,1.11,6.26-.82,6.26-.82,0,0,1.34-.75,1.94-2.71.38-1.23.36-2.34-.01-3.55-.98-3.13-3.27-4.38-3.27-4.38,0,0-7-2.44-10.96-.75-1.83.59-7.89-1.83-12.13,3.91-1.04,1.95-1.11,1.24-1.24,3.72s0,8.09,0,8.09c0,0-2.67.73-2.42-1.42s0-7.92,0-7.92Z"/>
    <path class="cls-3" d="M544.67,265.51s4.7,7.63,3.74,10.76.99,5.87.99,5.87c0,0,3.76.69,1.17,8.76.1,1.87,1.18,5.49,3.72,5.2s2.64-2.74,2.64-2.74c0,0-5.73-1.37-4.77-4.3s4.77-3.33,4.77-3.33c0,0,4.79,2.74,4.7,5.77s-2.19,7.63-8.48,10.08l-2.67,2.74s-.59.68-.98,3.62-.07,9.72-.07,9.72c0,0-2.48,4.7-.39,6.39s5.22,2.22,6.13,1.43,4.96-4.83,4.96-4.83c0,0,1.08-7.04-2.39-6.52s-1,4.04-1,4.04c0,0-4.19,2.87-4.58-.13s.98-6.39.98-6.39l2.81-2.22s.91-2.09.78-3.13,2.87-4.3,3.26-4.7l.39-.39,4.17-5.54s1.96-3.06,1.96-5.02-5.09-5.87-5.09-5.87l-2.22-.39-7.05-7.84-1.73-1.96s-1.67-9.08-3.72-9.08h-2.05Z"/>
    <path class="cls-3" d="M548.6,299.65s-4.53,3.91-3.93,7.63,1.94,6.65,1.94,6.65c0,0-3.29,5.74-2.77,8.87s2.22,6.26,4.76,6.91,10.24-.13,12.85-2.48,4.04-7.7,4.04-8.87-.65-8.35-6.13-8.74-6.26,5.16-6.26,5.16l-.16,2.99s.95,1.37,1.7-.39.84-5.28,4.27-4.3,3.23,5.48,3.23,5.48c0,0-3.33,6.52-4.99,7.27s-6.55.6-6.55.6c0,0-3.52-.54-3.33-3.96s1.08-5.87,1.08-5.87l-.39-3.23s-.98-7.43.49-8.41,2.84-3.23,2.84-3.23c0,0-1.79-2.95-2.67-2.09Z"/>
    <path class="cls-2" d="M540,256.29v9.21s3.85,3.11,3.79,8,0,6.55,0,6.55c0,0,1.11,2.84,1.5,3.33s1.66,3.52,1.17,7.43,1.56,7.46,5.09,8.66,7.43-2.8,7.43-2.8c0,0,1.66-4.6,0-7.24s-4.34-1.17-4.34-1.17c0,0-1.99,2.35,0,2.93s3.75.2,3.36,2.54-4.11,3.23-4.11,3.23c0,0-4.21-.98-4.6-4.11s.57-4.99.57-4.99c0,0,.51-3.72-.96-4.89s-2.35-4.99-2.35-4.99l-.49-6.06s-.44-2.93-1.39-4.11-2.42-4.01-2.42-4.01l-.29-2.15-.1-1.17,5.58,4.17s3.23,4.6,3.52,6.95,4.64,6.95,4.64,6.95l2.99,2.15s.68,3.13,3.13,3.52,4.81,3.42,4.81,3.42c0,0,1.35,1.66,1.06,3.82s-.68,4.19-.68,4.19l-3.52,3.82-4.6,5.78s-1.1.2-1.04,1.57,1.33,2.64,2.41,1.66,1.37-2.54,1.37-2.54l.88-2.15s6.36-2.05,7.53-6.55,1.76-9.88-2.54-13.79c-1.9-1.37-4.11-1.96-4.11-1.96l-1.86-.59s-3.1-7.25-7.34-8.12l-1.4-1.04-.72-2.64s.23-5.45-5.25-9.16-6.13-4.17-6.13-4.17c0,0-.59,0-.59.52Z"/>
    <path class="cls-4" d="M146.35,439.97s-7.83,5.65-6.26,10.15,6.26,5.28,6.26,5.28h1.5s1.63,7.96,5.15,7.5,5.87-3.78,5.87-3.78c0,0,1.57-4.21.78-7-1.35.23-5.45.72-6.73-.16s-2.05-.52-2.05-.52c0,0-4.3-6.92-2.54-10.83-.59-.88-1.98-.65-1.98-.65Z"/>
    <path class="cls-4" d="M432.16,471.85s19.99-3.49,23.04-7.94c0,0,3.55-.41,2.97,2.85s-4.36,2-4.36,2h-.98l-4.24,3.09-.26,1.17h-7.43l-3.13,3.38-2.28,1.97-1.05,1.25h-3.26v-3.21l.98-4.55Z"/>
    <path class="cls-4" d="M461.57,487.02s5.09-.49,4.7,1.98-.88,3.77-2.23,3.96-2.7-2.27-2.7-2.27c0,0,.88-2.39.23-3.67Z"/>
    <path class="cls-4" d="M399.64,444.59l3.72,4.62s-.39,3.23-3.72,3.04-3.98-3.83-3.98-3.83c0,0,1.04-3.48,3.98-3.83Z"/>
    <path class="cls-4" d="M404.27,444.59s8.22-.47,10.66,0-.39,1.45-.39,1.45c0,0-9.02,1.01-6.17,4.32,1.08.14,2.55,2.13,2.45,3.02s.88,2.74,2.05,2.74,3.33,1.96,3.62,3.52,2.54,2.54,2.54,2.54l3.91,3.23s1.76,1.76.88,1.57-4.11,1.63-4.11,1.79-2.84-.03-3.13-1.4-1.47-3.46-1.47-3.46l-9.2-11.64-1.66-3.05s-2.93-3.81,0-4.62Z"/>
    <path class="cls-4" d="M66.64,357.57s6.52,4.96,6.26,9.91,0,7.3,0,7.3c0,0,1.56,3.39,3.38,3.39s2.87,2.87,2.87,2.87l.59.82s1.17-.31,1.37-.75,2.69-3.52,3.52-3.67,2.05-1.91,1.76-2.1-4.3-3.33-4.65-5.62-2.05-5.67-2.05-5.67c0,0-4.21-5.09-8.85-6.11s-4.21-.36-4.21-.36Z"/>
    <path class="cls-4" d="M63.48,347.93s-2.54,7.73-1.47,10.08,3.72,5.97,5.09,6.26.68,7.92.68,7.92l.17,3.23s1.79,6.85,4.72,7.43c2.92.58,2.98.57,2.98.57l.44,7.26v3.91s2.93,1.27,2.93-1.86v-10.37c-.15-1.42-5.79-3.02-6.95-5.67-1.23-2.81.2-9.88.2-9.88,0,0-.29-3.13-2.84-4.99s-4.01-5.38-4.01-6.55,2.54.39,2.54.39c0,0,6.55,3.13,7.24,2.74s6.26,4.6,6.75,7.24,2.74,7.92,5.48,9.1,4.01-1.66,4.01-1.66c0,0-5.77-3.03-6.46-6.55s-4.21-9.59-7.24-10.66-5.28-1.37-5.28-1.37c0,0-6.55-.88-7.63-5.97l-1.37-.59Z"/>
    <path class="cls-4" d="M85.64,386.94s6.74-6.57,11.33-3.93,6.32,4.21,6.32,6.16-2.09,5.06-2.3,4.97c-.58-.23-2.8-1.01-2.86-3.43s-4.28-3.74-6.07-2.74c-3.45,1.92-3.07,4.69-2.09,6.88.57,1.28,2.13,2.96,3.33,4.12.83.81,2.12.89,3.04.18,1.5-1.15,3.68-2.74,4.46-2.9.86-.18,3.31-.51,4.73-.7.64-.08,1.18-.53,1.38-1.14.48-1.44,1.3-4.09,1.39-5.6.13-2.15-3.13-9.59-7.24-10.96s-10.63.26-12.98,2.74-2.45,6.33-2.45,6.33Z"/>
  </g>
</svg>