<?xml version="1.0" encoding="UTF-8"?>
<svg id="Layer_1" data-name="Layer 1" xmlns="http://www.w3.org/2000/svg" viewBox="0 0 385.85 128.49">
  <defs>
    <style>
      .cls-1 {
        fill: #3a6bb4;
      }

      .cls-2 {
        fill: #f7f7f7;
      }
    </style>
  </defs>
  <path class="cls-2" d="M16.9.49h99.1l87.26-.49h163.55s18.07,1.45,19.04,21.6v85.5s-1.52,20.6-17.7,20.99-36.39.39-36.39.39l-86.93-.33-225.26.33S0,127.61,0,108.04V20.39S-.39,2.21,16.9.49Z"/>
  <path class="cls-1" d="M92.51,31.47l-1.66,14.77h-2.25s-4.99-2.3-9.49-2.15-6.07.15-6.07.15c0,0-8.27.78-9.93,16.68v11.98s1.47,15.75,14.28,11.93c10.21-5.75,10.86-6.21,10.86-6.21l.92-.09,1.08,19.91s-12.77,9.29-18.2,9.34-17.95.24-17.95.24c0,0-19.91-1.96-25.53-14.09s-5.28-15.7-5.28-15.7v-19.57s1.52-17.07,10.71-24.95,10.76-8.61,21.13-11.49h15.85s14.49,2.97,21.53,9.24Z"/>
  <path class="cls-1" d="M108.2,24.33l37.43.52s2.53-.11,2.48,3.39c-.05,3.51.1,9.52.1,9.52v9.23s-.49,2.72,2.25,2.79,6.96.02,6.96.02l2.31.06s2,.18,1.87-2.15,0-20.25,0-20.25c0,0-.53-2.87,5.44-2.87s29.71-.03,29.71-.03l4.27.1s3.46-.1,3.39,4.08-.42,17.15-.42,17.15l-.07,15.1-.2,17.02-.52,23.48s.1,3.29-4.43,3.1-17.64-.52-21.33-.72-7.64.02-7.64.02l-2.13.05s-4.21.68-4.38-8.63c-.17-9.32.12-10.03.12-10.03l-.59-9.54s-.78-1.27-6.19-1.17-8.88-1.44-8.24,3.79c.07,5.72-.05,8.1-.05,8.1l.15,15.21s.34,2.96-3.35,2.94-28.76,0-28.76,0c0,0-8.63-.44-8.54-8.29s-.49-18.29-.49-18.29V28.41s-.28-3.43.83-4.08Z"/>
  <path class="cls-1" d="M326.56,23.32l36.98,1.01h1.71l.51,16.13-.42,12.23-.17,8.05-.05,13.01-.66,13.08.02,3.72-.51,9.61s0,4.45-2.84,4.43-23.67.88-23.67.88c0,0-6.77.86-8.27.51s-3.08-1.91-3.01-4.89c.07-2.98-.32-12.08-.32-12.08l-1.2-12.13-.42-17.1V27.59s-.44-3.52,2.3-4.27Z"/>
  <path class="cls-1" d="M303.44,38.89c-7.14-14.58-26.22-16.83-26.22-16.83h-28.37c-6.26.38-13.79,7.11-21.52,15.36-6.95,7.42-8.9,28.37-8.9,28.37,0,0-.68,11.25,5.87,25.04,6.55,13.79,27.98,15.85,27.98,15.85l25.83.39s5.87.49,18.1-7.14c12.23-7.63,13.99-25.34,13.99-25.34,0,0-.1-5.77.39-14.09.49-8.32-5.97-19.96-7.14-21.62ZM268.68,80.76s-1.76,11.64-1.96,12.23c-.2.59-2.15,4.79-3.33,4.21-1.17-.59-3.82-6.26-3.91-11.35-.1-5.09-.1-3.03-.1-5.48s-.49-11.93-.49-11.93l2.25-14.87.1-4.7s2.25-11.35,5.48-10.76c1.66,3.52,3.13,8.12,3.03,14.67-.1,6.55-1.08,27.98-1.08,27.98Z"/>
</svg>